<svg xmlns="http://www.w3.org/2000/svg" width="1700" height="1180" viewBox="0 0 1700 1180">
  <defs><marker id="arrow" viewBox="0 0 10 10" refX="9" refY="5" markerWidth="7" markerHeight="7" orient="auto"><path d="M0 0L10 5L0 10z" fill="#637a74"/></marker>
  <style>.title{font:700 36px 'Segoe UI',Arial,sans-serif;fill:#15384c}.h{font:700 20px Consolas,'Segoe UI',sans-serif;fill:#fff}.t{font:500 16px Consolas,'Segoe UI',sans-serif;fill:#294753}.line{stroke:#637a74;stroke-width:2.5;fill:none;marker-end:url(#arrow)}</style></defs>
  <rect width="1700" height="1180" fill="#fff"/><text x="850" y="55" text-anchor="middle" class="title">MÔ HÌNH DỮ LIỆU QUAN HỆ RÚT GỌN</text>
  <g class="line">
    <path d="M310 260H420"/>
    <path d="M310 290C360 290 370 510 420 510"/>
    <path d="M310 320C350 320 360 750 420 750"/>
    <path d="M555 350V430"/>
    <path d="M935 320V430"/>
  </g>

  <g transform="translate(40 180)"><rect width="270" height="220" rx="12" fill="#f8fbfa" stroke="#006b3f" stroke-width="3"/><rect width="270" height="48" rx="10" fill="#006b3f"/><text x="135" y="31" text-anchor="middle" class="h">users</text><text x="18" y="78" class="t">PK id</text><text x="18" y="108" class="t">full_name</text><text x="18" y="138" class="t">email (unique)</text><text x="18" y="168" class="t">password_hash</text><text x="18" y="198" class="t">created_at</text></g>
  <g transform="translate(420 120)"><rect width="270" height="230" rx="12" fill="#f8fbfa" stroke="#287b6d" stroke-width="3"/><rect width="270" height="48" rx="10" fill="#287b6d"/><text x="135" y="31" text-anchor="middle" class="h">saved_trips</text><text x="18" y="78" class="t">PK id</text><text x="18" y="108" class="t">FK user_email</text><text x="18" y="138" class="t">destination, region</text><text x="18" y="168" class="t">days, travelers</text><text x="18" y="198" class="t">itinerary_json, budget_json</text></g>
  <g transform="translate(420 430)"><rect width="270" height="210" rx="12" fill="#f8fbfa" stroke="#3397bd" stroke-width="3"/><rect width="270" height="48" rx="10" fill="#3397bd"/><text x="135" y="31" text-anchor="middle" class="h">expense_items</text><text x="18" y="78" class="t">PK id</text><text x="18" y="108" class="t">FK user_email, trip_id</text><text x="18" y="138" class="t">title, category, paid_by</text><text x="18" y="168" class="t">amount, note</text><text x="18" y="198" class="t">created_at</text></g>
  <g transform="translate(420 690)"><rect width="270" height="220" rx="12" fill="#f8fbfa" stroke="#d4af37" stroke-width="3"/><rect width="270" height="48" rx="10" fill="#d4af37"/><text x="135" y="31" text-anchor="middle" class="h">ticket_bookings</text><text x="18" y="78" class="t">PK id</text><text x="18" y="108" class="t">FK user_email</text><text x="18" y="138" class="t">provider, vehicle_type</text><text x="18" y="168" class="t">route, date, contact</text><text x="18" y="198" class="t">amount, status</text></g>

  <g transform="translate(800 120)"><rect width="270" height="200" rx="12" fill="#f8fbfa" stroke="#48a45e" stroke-width="3"/><rect width="270" height="48" rx="10" fill="#48a45e"/><text x="135" y="31" text-anchor="middle" class="h">chat_sessions</text><text x="18" y="78" class="t">PK id</text><text x="18" y="108" class="t">language</text><text x="18" y="138" class="t">user_name</text><text x="18" y="168" class="t">created_at, updated_at</text></g>
  <g transform="translate(800 430)"><rect width="270" height="200" rx="12" fill="#f8fbfa" stroke="#48a45e" stroke-width="3"/><rect width="270" height="48" rx="10" fill="#48a45e"/><text x="135" y="31" text-anchor="middle" class="h">chat_messages</text><text x="18" y="78" class="t">PK id</text><text x="18" y="108" class="t">FK session_id</text><text x="18" y="138" class="t">role, content</text><text x="18" y="168" class="t">created_at</text></g>
  <g transform="translate(800 690)"><rect width="270" height="210" rx="12" fill="#f8fbfa" stroke="#7b69a8" stroke-width="3"/><rect width="270" height="48" rx="10" fill="#7b69a8"/><text x="135" y="31" text-anchor="middle" class="h">managed_places</text><text x="18" y="78" class="t">PK place_id</text><text x="18" y="108" class="t">place_json</text><text x="18" y="138" class="t">is_active</text><text x="18" y="168" class="t">updated_by, updated_at</text></g>

  <g transform="translate(1180 120)"><rect width="310" height="200" rx="12" fill="#f8fbfa" stroke="#48a45e" stroke-width="3"/><rect width="310" height="48" rx="10" fill="#48a45e"/><text x="155" y="31" text-anchor="middle" class="h">page_view_events</text><text x="18" y="78" class="t">PK id</text><text x="18" y="108" class="t">path, method, status_code</text><text x="18" y="138" class="t">response_ms, visitor_key</text><text x="18" y="168" class="t">user_email, language, created_at</text></g>
  <g transform="translate(1180 430)"><rect width="310" height="200" rx="12" fill="#f8fbfa" stroke="#7b69a8" stroke-width="3"/><rect width="310" height="48" rx="10" fill="#7b69a8"/><text x="155" y="31" text-anchor="middle" class="h">site_content_settings</text><text x="18" y="78" class="t">PK key</text><text x="18" y="108" class="t">value</text><text x="18" y="138" class="t">updated_by</text><text x="18" y="168" class="t">updated_at</text></g>
  <g transform="translate(1180 690)"><rect width="310" height="220" rx="12" fill="#f8fbfa" stroke="#7b69a8" stroke-width="3"/><rect width="310" height="48" rx="10" fill="#7b69a8"/><text x="155" y="31" text-anchor="middle" class="h">admin_recommendations</text><text x="18" y="78" class="t">PK id</text><text x="18" y="108" class="t">title/detail VI, EN, KO</text><text x="18" y="138" class="t">priority, display_order</text><text x="18" y="168" class="t">is_active</text><text x="18" y="198" class="t">updated_by, updated_at</text></g>
  <g transform="translate(1180 960)"><rect width="310" height="145" rx="12" fill="#f8fbfa" stroke="#7b69a8" stroke-width="3"/><rect width="310" height="48" rx="10" fill="#7b69a8"/><text x="155" y="31" text-anchor="middle" class="h">dashboard_block_visibility</text><text x="18" y="78" class="t">PK block_key</text><text x="18" y="108" class="t">is_visible, updated_by</text><text x="18" y="135" class="t">updated_at</text></g>
  <text x="850" y="1145" text-anchor="middle" class="t">Các bảng được khởi tạo bằng SQLite; khóa ngoại và chỉ mục hỗ trợ truy vấn theo người dùng, chuyến đi, phiên chat và lượt truy cập.</text>
</svg>
